<svg xmlns="http://www.w3.org/2000/svg" viewBox="0 0 1000 1000" width="1000" height="1000"><g transform="translate(131 -139) scale(0.72)"><g transform="translate(0,1024) scale(0.1,-0.1)" stroke="none"><path fill="#2E8C8C" d="M4950 6409 c-646 -79 -1217 -365 -1734 -869 -589 -574 -1006 -1338 -1175 -2153 -36 -173 -39 -259 -11 -350 63 -202 255 -312 486 -277 259 39 663 245 984 500 126 100 345 312 445 431 137 163 280 379 341 517 l23 53 -117 -118 c-351 -352 -794 -618 -1247 -750 -131 -37 -297 -75 -303 -68 -7 7 27 168 60 283 48 168 113 333 207 527 196 404 428 731 741 1046 412 414 848 666 1335 772 262 58 604 66 855 23 220 -39 442 -133 588 -251 338 -273 444 -767 292 -1357 -15 -60 -26 -108 -24 -108 14 0 158 75 209 108 127 82 245 229 300 376 28 76 55 190 55 238 0 26 3 29 23 25 68 -17 925 -207 931 -207 29 0 -456 472 -669 651 -531 446 -1090 759 -1577 883 -262 67 -354 78 -663 82 -154 1 -314 -2 -355 -7z"/><path fill="#E8604C" d="M5013 7466 c-89 -29 -151 -84 -200 -179 -24 -45 -28 -63 -28 -142 0 -79 3 -97 29 -149 37 -75 93 -131 165 -165 47 -22 70 -26 141 -26 71 1 95 5 143 27 31 15 57 30 57 33 0 3 -9 1 -20 -5 -14 -7 -20 -7 -20 0 0 9 20 14 47 11 15 -2 74 71 104 129 20 38 24 59 24 140 0 86 -3 101 -30 154 -33 66 -93 123 -163 157 -58 28 -186 36 -249 15z"/></g></g><g fill="#FFFFFF" transform="translate(184 640)"><g transform="translate(0.0 0) scale(0.075000 -0.075000)"><path d="M1162 1440V1245H713V0H480V1245H30V1440Z"/></g><g transform="translate(98.3 0) scale(0.075000 -0.075000)"><path d="M1376 0H1195Q1164 0 1145.0 15.5Q1126 31 1116 54L996 372H376L256 54Q248 34 228.0 17.0Q208 0 178 0H-3L568 1440H805ZM439 540H933L735 1066Q723 1095 710.5 1135.0Q698 1175 686 1221Q674 1174 661.5 1134.5Q649 1095 638 1065Z"/></g><g transform="translate(210.3 0) scale(0.075000 -0.075000)"><path d="M406 0H171V1440H406Z"/></g><g transform="translate(262.6 0) scale(0.075000 -0.075000)"><path d="M887 564Q901 535 915.0 504.5Q929 474 940 442Q952 474 965.5 505.5Q979 537 994 566L1449 1401Q1463 1429 1480.0 1434.5Q1497 1440 1528 1440H1703V0H1497V987Q1497 1011 1498.5 1039.0Q1500 1067 1502 1096L1040 242Q1013 189 957 189H924Q867 189 841 242L370 1099Q373 1069 375.0 1040.5Q377 1012 377 987V0H171V1440H346Q377 1440 394.0 1434.5Q411 1429 425 1401L887 564Z"/></g><g transform="translate(412.1 0) scale(0.075000 -0.075000)"><path d="M1069 1440V1251H406V817H936V634H406V189H1070L1069 0H171V1440Z"/></g><g transform="translate(507.5 0) scale(0.075000 -0.075000)"><path d="M293 1440Q308 1440 318.5 1438.5Q329 1437 338.0 1433.0Q347 1429 355.0 1421.0Q363 1413 372 1401L1164 384Q1161 415 1159.5 445.0Q1158 475 1158 501V1440H1363V0H1244Q1217 0 1198.0 9.5Q1179 19 1162 41L371 1057Q374 1028 375.5 999.5Q377 971 377 947V0H171V1440H293Z"/></g></g><g fill="#2E8C8C" transform="translate(267 760)"><g transform="translate(0.0 0) scale(0.039000 -0.039000)"><path d="M846 833Q838 822 830.0 816.0Q822 810 808 810Q793 810 775.0 822.5Q757 835 730.5 850.0Q704 865 665.5 877.5Q627 890 571 890Q496 890 439.0 863.5Q382 837 343.5 787.0Q305 737 285.5 666.0Q266 595 266 507Q266 415 287.0 343.5Q308 272 346.5 223.5Q385 175 439.5 149.5Q494 124 562 124Q627 124 669.0 139.5Q711 155 738.5 174.0Q766 193 784.5 208.5Q803 224 821 224Q843 224 855 207L905 142Q872 101 830.0 72.0Q788 43 739.5 23.5Q691 4 638.0 -5.0Q585 -14 530 -14Q435 -14 353.5 21.0Q272 56 212.0 122.5Q152 189 118.0 286.0Q84 383 84 507Q84 620 115.5 716.0Q147 812 207.5 881.5Q268 951 356.5 990.0Q445 1029 560 1029Q667 1029 748.5 994.5Q830 960 893 897Z"/></g><g transform="translate(60.6 0) scale(0.039000 -0.039000)"><path d="M568 1029Q679 1029 768.0 992.0Q857 955 920.0 887.0Q983 819 1016.5 722.5Q1050 626 1050 507Q1050 387 1016.5 291.0Q983 195 920.0 127.0Q857 59 768.0 22.5Q679 -14 568 -14Q456 -14 366.5 22.5Q277 59 214.0 127.0Q151 195 117.5 291.0Q84 387 84 507Q84 626 117.5 722.5Q151 819 214.0 887.0Q277 955 366.5 992.0Q456 1029 568 1029ZM568 125Q718 125 792.0 225.5Q866 326 866 506Q866 687 792.0 788.0Q718 889 568 889Q492 889 435.5 863.0Q379 837 341.5 788.0Q304 739 285.5 667.5Q267 596 267 506Q267 326 341.5 225.5Q416 125 568 125Z"/></g><g transform="translate(128.3 0) scale(0.039000 -0.039000)"><path d="M141 0V1013H248Q286 1013 295 976L308 872Q364 941 434.0 985.0Q504 1029 596 1029Q698 1029 761.5 972.0Q825 915 853 818Q875 873 909.5 913.0Q944 953 987.0 979.0Q1030 1005 1078.5 1017.0Q1127 1029 1177 1029Q1257 1029 1319.5 1003.5Q1382 978 1425.5 929.0Q1469 880 1492.0 808.5Q1515 737 1515 645V0H1336V645Q1336 764 1284.0 825.5Q1232 887 1134 887Q1090 887 1050.5 871.5Q1011 856 981.0 826.0Q951 796 933.5 750.5Q916 705 916 645V0H737V645Q737 767 688.0 827.0Q639 887 545 887Q479 887 423.0 851.5Q367 816 320 755V0Z"/></g><g transform="translate(215.8 0) scale(0.039000 -0.039000)"><path d="M141 -343V1013H248Q286 1013 295 976L310 856Q375 935 459.0 983.0Q543 1031 651 1031Q739 1031 810.0 997.5Q881 964 931.0 898.5Q981 833 1008.0 736.0Q1035 639 1035 513Q1035 401 1005.0 304.5Q975 208 918.5 137.5Q862 67 780.5 26.5Q699 -14 597 -14Q504 -14 437.5 17.0Q371 48 320 105V-343ZM593 887Q506 887 440.5 847.0Q375 807 320 734V244Q368 178 426.5 151.0Q485 124 557 124Q699 124 775.0 225.0Q851 326 851 513Q851 612 833.5 683.0Q816 754 783.0 799.5Q750 845 702.0 866.0Q654 887 593 887Z"/></g><g transform="translate(282.9 0) scale(0.039000 -0.039000)"><path d="M309 1013V367Q309 252 361.5 189.0Q414 126 522 126Q600 126 669.0 163.0Q738 200 796 266V1013H974V0H868Q830 0 820 37L806 146Q740 73 658.0 28.5Q576 -16 470 -16Q387 -16 323.5 11.5Q260 39 217.0 89.0Q174 139 152.5 210.0Q131 281 131 367V1013Z"/></g><g transform="translate(349.8 0) scale(0.039000 -0.039000)"><path d="M452 -16Q332 -16 267.5 51.0Q203 118 203 244V864H81Q65 864 54.0 873.5Q43 883 43 903V974L209 995L250 1308Q253 1323 263.5 1332.5Q274 1342 291 1342H381V993H674V864H381V256Q381 192 412.0 161.0Q443 130 492 130Q520 130 540.5 137.5Q561 145 576.0 154.0Q591 163 601.5 170.5Q612 178 620 178Q634 178 645 161L697 76Q651 33 586.0 8.5Q521 -16 452 -16Z"/></g><g transform="translate(401.2 0) scale(0.039000 -0.039000)"><path d="M556 1029Q647 1029 724.5 998.5Q802 968 858.5 910.5Q915 853 947.0 768.5Q979 684 979 576Q979 534 970.0 520.0Q961 506 936 506H259Q261 410 285.0 339.0Q309 268 351.0 220.5Q393 173 451.0 149.5Q509 126 581 126Q648 126 696.5 141.5Q745 157 780.0 175.0Q815 193 838.5 208.5Q862 224 879 224Q901 224 913 207L963 142Q930 102 884.0 72.5Q838 43 785.5 24.0Q733 5 677.0 -4.5Q621 -14 566 -14Q461 -14 372.5 21.5Q284 57 219.5 125.5Q155 194 119.0 295.0Q83 396 83 527Q83 633 115.5 725.0Q148 817 209.0 884.5Q270 952 358.0 990.5Q446 1029 556 1029ZM560 898Q431 898 357.0 823.5Q283 749 265 617H819Q819 679 801.5 730.5Q784 782 750.5 819.5Q717 857 669.0 877.5Q621 898 560 898Z"/></g></g></svg>